<?xml version="1.0" standalone="no"?>
<!DOCTYPE svg PUBLIC "-//W3C//DTD SVG 20010904//EN"
 "http://www.w3.org/TR/2001/REC-SVG-20010904/DTD/svg10.dtd">
<svg version="1.0" xmlns="http://www.w3.org/2000/svg"
 width="512.000000pt" height="512.000000pt" viewBox="0 0 512.000000 512.000000"
 preserveAspectRatio="xMidYMid meet">
<metadata>
Created by potrace 1.14, written by Peter Selinger 2001-2017
</metadata>
<g transform="translate(0.000000,512.000000) scale(0.100000,-0.100000)"
fill="#000000" stroke="none">
<path d="M2398 4825 c-2 -2 -34 -6 -73 -9 -81 -8 -95 -10 -201 -31 -83 -17
-90 -19 -114 -27 -8 -3 -44 -14 -80 -24 -135 -37 -433 -168 -514 -227 -6 -4
-42 -28 -81 -54 -159 -105 -312 -240 -440 -387 -27 -32 -56 -64 -62 -71 -7 -8
-13 -18 -13 -23 0 -6 -4 -12 -8 -14 -12 -4 -98 -126 -145 -205 -58 -96 -141
-269 -176 -368 -18 -49 -37 -101 -42 -115 -5 -14 -11 -35 -14 -47 -7 -33 -13
-54 -24 -91 -5 -18 -10 -35 -10 -37 -1 -3 -1 -6 -2 -7 0 -2 -3 -16 -5 -33 -3
-16 -6 -37 -8 -45 -1 -8 -6 -37 -10 -65 -4 -27 -10 -63 -13 -80 -10 -53 -11
-475 -2 -475 6 0 5 -8 -1 -19 -5 -11 -6 -21 -1 -23 5 -2 12 -30 15 -63 3 -33
10 -74 15 -92 5 -17 7 -34 4 -36 -2 -3 0 -14 5 -24 6 -10 13 -40 16 -68 3 -27
10 -67 15 -87 5 -21 7 -38 5 -38 -3 0 0 -10 7 -21 9 -17 8 -20 -3 -13 -10 6
-11 5 -1 -7 7 -9 14 -29 16 -45 2 -17 7 -35 11 -42 4 -7 2 -12 -6 -12 -9 0 -9
-3 2 -10 8 -5 12 -10 8 -10 -4 0 -3 -11 2 -24 6 -16 5 -28 -3 -36 -9 -10 -9
-11 0 -6 13 7 18 -6 29 -79 4 -27 8 -54 10 -60 1 -5 4 -22 7 -37 3 -15 8 -32
11 -37 4 -5 1 -13 -5 -17 -7 -4 -8 -9 -1 -13 6 -3 13 -24 16 -46 2 -22 9 -55
15 -73 9 -30 8 -33 -7 -28 -14 5 -14 4 2 -9 12 -9 17 -22 13 -35 -3 -11 -1
-18 4 -14 8 4 13 -30 12 -73 -1 -7 2 -13 6 -13 4 0 8 -6 8 -12 0 -14 9 -66 18
-108 3 -14 8 -38 11 -55 3 -16 7 -31 9 -34 3 -2 0 -9 -5 -16 -7 -8 2 -11 33
-11 23 1 48 -3 56 -9 11 -7 13 -7 7 3 -4 6 -2 12 3 12 6 0 11 -4 11 -10 0 -5
5 -10 11 -10 5 0 8 4 5 8 -2 4 6 8 20 8 13 0 24 -4 24 -9 0 -4 5 -5 12 -1 7 4
32 8 57 8 43 0 46 -2 52 -34 4 -18 5 -40 1 -48 -3 -9 -1 -13 4 -9 10 5 17 -33
18 -100 1 -17 4 -29 7 -27 13 8 19 -89 7 -105 -11 -14 -11 -14 4 -3 15 12 17
11 16 -5 0 -10 2 -31 6 -48 4 -16 9 -43 12 -59 3 -16 12 -39 20 -51 8 -12 11
-25 7 -30 -5 -4 -2 -5 5 -1 6 4 12 2 12 -3 0 -6 6 -10 13 -8 6 1 11 -3 10 -8
-2 -12 4 -13 135 -15 51 0 90 -5 87 -10 -3 -5 -1 -12 5 -15 6 -4 9 -1 8 7 -2
10 23 13 115 15 90 2 116 -1 111 -10 -5 -9 -3 -9 7 1 15 14 123 17 114 3 -3
-5 -1 -13 5 -16 6 -4 9 -1 8 7 -4 16 137 28 154 13 8 -7 9 -6 3 4 -6 11 -4 13
8 8 10 -4 17 -2 17 4 0 6 7 8 16 5 8 -3 12 -2 9 4 -3 5 6 12 20 16 14 3 25 10
25 15 0 5 5 9 10 9 14 0 50 37 43 44 -3 3 2 8 11 12 9 3 16 12 16 19 0 8 6 20
12 27 7 7 13 19 14 26 3 39 5 43 16 36 7 -5 8 -3 2 7 -4 8 -9 37 -10 64 -1 28
-4 61 -8 75 -8 32 -27 135 -32 175 -3 17 -9 48 -14 70 -5 22 -14 69 -20 105
-6 36 -15 83 -20 105 -8 34 -13 64 -26 140 -1 6 -3 12 -4 15 -1 3 -3 16 -5 30
-3 23 -11 64 -20 100 -6 29 -19 125 -17 133 1 4 -2 7 -6 7 -4 0 -8 10 -9 23
-1 29 -10 82 -17 104 -3 10 -8 32 -10 48 -3 17 -10 57 -16 90 -6 33 -13 71
-15 85 -2 14 -4 25 -5 25 -1 0 -3 9 -5 20 -10 75 -27 128 -50 165 -81 127
-231 167 -379 100 -23 -10 -102 -41 -176 -70 -74 -28 -148 -57 -165 -64 -16
-7 -70 -28 -120 -46 -96 -35 -145 -75 -145 -117 0 -44 -18 -23 -25 30 -4 28
-7 53 -7 54 0 2 -4 17 -9 35 -5 18 -12 53 -15 78 -4 25 -9 54 -13 65 -4 11 -7
39 -7 62 1 24 -2 43 -6 43 -4 0 -6 14 -4 30 2 17 0 30 -4 30 -4 0 -7 7 -7 15
0 8 5 15 11 15 6 0 4 5 -4 10 -13 9 -13 10 0 10 12 0 13 2 1 9 -20 13 -1 36
32 37 20 0 26 -4 22 -14 -5 -13 -3 -13 11 -1 23 19 54 19 51 0 -1 -9 -6 -23
-11 -31 -7 -12 -7 -13 5 -2 8 7 15 17 15 23 1 5 2 13 3 17 1 9 62 9 78 -1 6
-4 14 -1 16 5 4 10 6 10 6 0 1 -9 6 -10 20 -2 14 7 21 6 24 -3 4 -8 8 -8 14
-2 4 6 22 10 38 10 17 0 33 -4 37 -10 4 -6 8 -2 8 9 0 12 5 16 16 12 8 -3 12
-2 9 4 -3 6 0 10 9 10 8 0 20 13 27 29 7 16 16 28 19 26 3 -2 6 8 7 23 3 60
15 127 25 133 6 4 5 8 -3 11 -8 3 -10 9 -3 19 5 8 9 21 10 29 2 38 17 89 24
85 5 -3 12 0 16 6 4 8 3 9 -4 5 -7 -4 -12 -2 -12 5 0 21 44 139 52 139 4 0 4
7 1 17 -4 11 -3 14 5 9 7 -4 10 -2 7 7 -6 14 73 172 112 225 13 17 21 32 18
32 -3 0 8 13 24 29 16 16 27 32 24 35 -4 3 0 6 7 6 7 0 11 3 8 6 -4 3 1 14 10
24 9 10 32 34 50 55 29 31 36 34 50 23 15 -12 16 -11 3 4 -12 16 -8 23 32 60
53 52 126 111 141 117 6 2 13 7 16 11 10 12 99 70 109 70 5 0 15 8 20 18 6 9
11 14 11 9 0 -4 11 0 25 9 25 16 51 11 39 -8 -4 -7 -2 -8 5 -4 9 6 9 11 0 22
-6 8 -9 15 -5 15 24 5 33 4 46 -5 13 -9 13 -9 2 6 -9 11 -10 18 -2 23 5 3 10
4 10 0 0 -3 17 3 38 14 20 10 48 21 62 22 14 2 27 6 30 9 3 3 19 10 37 16 24
9 33 9 37 0 2 -6 5 -2 5 9 1 17 3 17 11 5 8 -12 10 -12 10 -1 0 11 3 11 17 0
11 -10 14 -10 9 -1 -4 6 -4 12 1 13 4 0 17 2 28 5 11 2 32 5 48 6 15 0 27 4
27 8 0 4 10 7 23 6 12 -1 34 1 50 5 17 5 27 4 27 -3 0 -7 4 -7 13 -1 6 5 28
11 47 12 19 1 44 3 55 5 11 2 28 -1 38 -6 11 -6 17 -5 17 2 0 6 5 8 13 3 6 -4
39 -8 72 -9 33 -1 59 -6 58 -11 -1 -5 4 -10 12 -10 8 0 12 5 8 10 -3 5 6 7 23
3 16 -3 46 -8 67 -12 20 -3 37 -9 37 -13 0 -4 12 -7 28 -7 15 0 46 -6 70 -13
39 -11 42 -14 30 -29 -12 -15 -11 -16 4 -3 15 11 25 10 70 -5 29 -11 56 -23
59 -27 3 -5 8 -8 10 -6 9 5 49 -13 49 -23 0 -6 3 -9 6 -5 12 11 104 -42 104
-61 0 -14 2 -14 9 -3 7 11 14 9 37 -13 16 -14 38 -29 49 -32 26 -9 37 -26 22
-37 -8 -6 -5 -7 7 -3 22 8 110 -60 100 -76 -4 -7 -2 -8 4 -4 6 4 38 -20 72
-54 33 -33 57 -60 53 -60 -4 0 3 -7 15 -16 13 -9 21 -22 18 -30 -3 -8 0 -11
10 -7 7 3 14 0 14 -7 0 -7 8 -19 18 -27 11 -9 11 -12 2 -8 -8 4 -3 -3 11 -16
26 -24 84 -109 74 -109 -3 0 3 -10 15 -22 22 -24 27 -43 8 -33 -7 4 -2 -2 10
-12 13 -11 25 -31 25 -45 1 -14 5 -24 8 -22 9 5 40 -66 34 -77 -4 -5 -1 -9 5
-9 7 0 9 -7 6 -16 -3 -8 -2 -13 3 -10 7 4 26 -45 37 -94 0 -3 4 -13 7 -22 16
-42 17 -49 4 -42 -9 6 -9 5 0 -7 6 -8 14 -27 17 -42 2 -15 7 -31 10 -36 4 -5
2 -13 -4 -16 -8 -5 -7 -11 1 -21 11 -13 14 -33 22 -121 1 -13 5 -23 8 -23 7 0
22 -40 20 -53 -1 -5 3 -6 8 -3 5 4 17 -2 26 -11 13 -12 35 -17 81 -17 35 -1
64 -4 64 -8 0 -5 5 -8 11 -8 5 0 8 3 6 8 -3 4 24 7 59 7 35 1 64 -3 64 -8 0
-5 8 -3 17 4 15 12 16 12 10 -5 -6 -15 -5 -17 6 -8 8 7 17 9 20 5 4 -3 7 0 7
8 0 11 2 11 10 -1 5 -8 10 -10 10 -3 0 6 8 10 18 9 19 -3 20 -31 8 -141 -6
-55 -9 -76 -20 -130 -2 -11 -14 -76 -26 -145 -23 -122 -37 -168 -37 -115 0 28
-28 73 -54 86 -7 4 -39 17 -69 29 -30 11 -64 25 -75 30 -28 11 -89 35 -95 36
-3 0 -18 6 -35 13 -155 64 -372 143 -398 145 -27 2 -82 -6 -122 -17 -27 -8
-77 -40 -100 -65 -34 -35 -71 -108 -79 -152 -10 -58 -20 -113 -30 -160 -3 -14
-9 -45 -12 -70 -3 -25 -8 -49 -11 -53 -3 -4 -7 -27 -10 -50 -2 -23 -10 -45
-16 -49 -9 -6 -9 -8 0 -8 8 0 7 -12 -3 -45 -15 -50 -14 -47 -14 -76 0 -13 -4
-18 -12 -13 -10 5 -10 4 -2 -5 11 -12 10 -19 -12 -116 -5 -19 -12 -65 -19
-110 -1 -11 -3 -20 -4 -20 -1 0 -4 -11 -6 -25 -2 -14 -13 -74 -24 -135 -11
-60 -23 -121 -25 -135 -3 -14 -5 -25 -6 -25 -1 0 -3 -9 -4 -20 -6 -38 -16 -95
-25 -137 -6 -24 -13 -65 -17 -93 -3 -27 -8 -59 -11 -70 -8 -36 -4 -59 21 -118
8 -20 12 -37 8 -37 -4 0 1 -5 11 -11 9 -6 15 -14 12 -20 -4 -5 2 -9 11 -9 10
0 15 -3 11 -6 -8 -8 18 -34 33 -34 6 0 8 -4 5 -10 -3 -5 3 -10 15 -10 12 0 18
-4 15 -10 -3 -5 0 -7 8 -5 7 3 26 -6 41 -20 15 -14 30 -25 34 -25 4 0 -2 8
-13 17 -19 15 -19 15 10 8 16 -3 71 -6 122 -6 54 0 92 -3 88 -8 -3 -6 -1 -13
5 -16 6 -4 9 -1 8 7 -2 10 17 14 75 16 49 2 76 -1 73 -7 -4 -5 -2 -13 4 -16 6
-4 9 -1 8 7 -2 10 27 13 135 15 79 1 135 -2 132 -7 -3 -5 -1 -12 5 -15 6 -4 9
-1 8 6 -3 13 37 27 65 23 11 -1 16 0 13 3 -3 3 6 14 19 25 13 10 27 28 30 39
6 17 9 18 23 7 15 -12 16 -11 3 4 -8 11 -10 25 -6 35 5 10 7 28 6 41 -1 12 3
22 9 22 6 0 8 5 5 10 -4 6 -2 34 4 63 18 91 22 111 27 152 2 22 7 46 10 54 2
8 7 30 10 50 6 38 24 57 35 39 4 -5 9 -6 12 -1 3 4 31 8 64 7 44 0 57 -4 55
-15 -2 -11 0 -11 10 2 14 17 80 21 70 4 -3 -5 1 -5 9 2 8 6 19 12 24 12 6 0
11 9 12 18 4 42 15 78 25 84 7 4 7 9 -1 13 -7 5 -8 14 -2 24 4 9 6 23 4 30 -3
6 0 12 6 12 6 0 7 8 4 17 -5 13 -2 15 12 10 14 -6 16 -5 6 6 -11 14 -8 73 6
107 6 14 9 39 12 89 1 17 5 22 17 17 14 -5 15 -4 5 8 -7 8 -9 27 -6 42 3 16 8
38 10 49 2 11 5 29 8 40 3 11 8 40 13 65 4 25 8 47 9 50 0 3 5 28 9 55 4 28
13 53 19 57 9 6 9 8 -1 8 -9 0 -9 8 3 35 8 20 10 33 4 29 -8 -4 -8 -1 0 13 6
11 7 23 4 27 -3 3 -2 6 4 6 5 0 9 10 8 23 -1 12 0 27 4 32 3 6 6 22 7 36 1 15
5 35 9 45 4 11 9 35 10 54 3 34 9 65 22 125 4 17 6 33 5 38 -1 4 1 7 6 7 4 0
8 26 10 58 2 31 5 66 6 77 2 11 4 37 5 59 1 35 3 37 19 25 15 -13 16 -12 4 2
-9 12 -14 77 -18 220 -6 247 -7 269 -14 269 -4 0 -7 10 -7 23 -1 12 -5 40 -9
62 -5 22 -8 52 -8 67 -1 14 -4 24 -8 21 -5 -2 -8 4 -9 14 -1 20 -1 23 -26 113
-10 36 -20 67 -23 70 -3 3 -6 12 -8 20 -1 8 -12 40 -23 70 -225 593 -699 1070
-1289 1295 -252 96 -511 142 -802 142 -87 0 -159 -1 -160 -2z"/>
<path d="M2657 3970 c7 -8 20 -15 29 -16 9 -1 13 1 9 4 -4 4 -10 7 -13 7 -4 0
-14 4 -22 9 -12 7 -13 6 -3 -4z"/>
<path d="M2350 3966 c0 -2 7 -7 16 -10 8 -3 12 -2 9 4 -6 10 -25 14 -25 6z"/>
<path d="M2413 3951 c0 -11 5 -18 9 -15 4 3 5 11 1 19 -7 21 -12 19 -10 -4z"/>
<path d="M2510 3961 c0 -6 4 -13 10 -16 6 -3 7 1 4 9 -7 18 -14 21 -14 7z"/>
<path d="M2817 3955 c-4 -8 -1 -17 6 -21 7 -4 9 -4 5 1 -4 4 -3 14 3 22 7 8 8
13 1 13 -5 0 -12 -7 -15 -15z"/>
<path d="M2773 3945 c0 -8 4 -12 9 -9 5 3 6 10 3 15 -9 13 -12 11 -12 -6z"/>
<path d="M2270 3940 c0 -5 5 -10 11 -10 5 0 7 5 4 10 -3 6 -8 10 -11 10 -2 0
-4 -4 -4 -10z"/>
<path d="M2306 3938 c3 -5 10 -6 15 -3 13 9 11 12 -6 12 -8 0 -12 -4 -9 -9z"/>
<path d="M2575 3940 c-3 -5 -1 -10 4 -10 6 0 11 5 11 10 0 6 -2 10 -4 10 -3 0
-8 -4 -11 -10z"/>
<path d="M2893 3925 c0 -8 4 -12 9 -9 5 3 6 10 3 15 -9 13 -12 11 -12 -6z"/>
<path d="M2929 3923 c-13 -16 -12 -17 4 -4 16 13 21 21 13 21 -2 0 -10 -8 -17
-17z"/>
<path d="M2973 3911 c0 -11 5 -18 9 -15 4 3 5 11 1 19 -7 21 -12 19 -10 -4z"/>
<path d="M2390 3896 c0 -2 8 -10 18 -17 15 -13 16 -12 3 4 -13 16 -21 21 -21
13z"/>
<path d="M2020 3882 c0 -4 9 -8 19 -8 11 0 17 4 15 8 -3 4 -12 8 -20 8 -8 0
-14 -4 -14 -8z"/>
<path d="M3070 3881 c0 -6 4 -12 8 -15 5 -3 9 1 9 9 0 8 -4 15 -9 15 -4 0 -8
-4 -8 -9z"/>
<path d="M2074 3862 c4 -3 14 -7 22 -8 9 -1 13 0 10 4 -4 3 -14 7 -22 8 -9 1
-13 0 -10 -4z"/>
<path d="M2013 3845 c0 -8 4 -12 9 -9 5 3 6 10 3 15 -9 13 -12 11 -12 -6z"/>
<path d="M3156 3847 c3 -10 9 -15 12 -12 3 3 0 11 -7 18 -10 9 -11 8 -5 -6z"/>
<path d="M1977 3835 c-4 -8 -3 -16 1 -19 4 -3 9 4 9 15 2 23 -3 25 -10 4z"/>
<path d="M3070 3841 c0 -6 4 -13 10 -16 6 -3 7 1 4 9 -7 18 -14 21 -14 7z"/>
<path d="M1874 3782 c4 -3 14 -7 22 -8 9 -1 13 0 10 4 -4 3 -14 7 -22 8 -9 1
-13 0 -10 -4z"/>
<path d="M3255 3780 c3 -5 8 -10 11 -10 2 0 4 5 4 10 0 6 -5 10 -11 10 -5 0
-7 -4 -4 -10z"/>
<path d="M1880 3740 c-9 -6 -10 -10 -3 -10 6 0 15 5 18 10 8 12 4 12 -15 0z"/>
<path d="M1656 3653 c-6 -14 -5 -15 5 -6 7 7 10 15 7 18 -3 3 -9 -2 -12 -12z"/>
<path d="M1650 3626 c0 -2 7 -7 16 -10 8 -3 12 -2 9 4 -6 10 -25 14 -25 6z"/>
<path d="M1486 3502 c-3 -5 1 -9 9 -9 8 0 12 4 9 9 -3 4 -7 8 -9 8 -2 0 -6 -4
-9 -8z"/>
<path d="M3690 3419 c0 -5 5 -7 10 -4 6 3 10 8 10 11 0 2 -4 4 -10 4 -5 0 -10
-5 -10 -11z"/>
<path d="M1396 3335 c-9 -26 -7 -32 5 -12 6 10 9 21 6 23 -2 3 -7 -2 -11 -11z"/>
<path d="M3774 3336 c1 -8 5 -18 8 -22 4 -3 5 1 4 10 -1 8 -5 18 -8 22 -4 3
-5 -1 -4 -10z"/>
<path d="M1337 3315 c-4 -8 -3 -16 1 -19 4 -3 9 4 9 15 2 23 -3 25 -10 4z"/>
<path d="M1033 2505 c0 -8 4 -12 9 -9 5 3 6 10 3 15 -9 13 -12 11 -12 -6z"/>
<path d="M790 2501 c0 -6 4 -13 10 -16 6 -3 7 1 4 9 -7 18 -14 21 -14 7z"/>
<path d="M4346 2498 c3 -4 9 -8 15 -8 5 0 9 4 9 8 0 5 -7 9 -15 9 -8 0 -12 -4
-9 -9z"/>
<path d="M916 2487 c3 -10 9 -15 12 -12 3 3 0 11 -7 18 -10 9 -11 8 -5 -6z"/>
<path d="M4420 2485 c0 -2 6 -8 13 -14 10 -8 14 -7 14 2 0 8 -6 14 -14 14 -7
0 -13 -1 -13 -2z"/>
<path d="M773 2465 c0 -8 4 -12 9 -9 5 3 6 10 3 15 -9 13 -12 11 -12 -6z"/>
<path d="M4469 2463 c-13 -16 -12 -17 4 -4 9 7 17 15 17 17 0 8 -8 3 -21 -13z"/>
<path d="M4170 2466 c0 -2 7 -7 16 -10 8 -3 12 -2 9 4 -6 10 -25 14 -25 6z"/>
<path d="M4290 2460 c0 -5 5 -10 11 -10 5 0 7 5 4 10 -3 6 -8 10 -11 10 -2 0
-4 -4 -4 -10z"/>
<path d="M759 913 c-13 -16 -12 -17 4 -4 9 7 17 15 17 17 0 8 -8 3 -21 -13z"/>
<path d="M4336 922 c-3 -5 1 -9 9 -9 8 0 12 4 9 9 -3 4 -7 8 -9 8 -2 0 -6 -4
-9 -8z"/>
<path d="M4430 926 c0 -2 7 -7 16 -10 8 -3 12 -2 9 4 -6 10 -25 14 -25 6z"/>
<path d="M650 899 c0 -5 5 -7 10 -4 6 3 10 8 10 11 0 2 -4 4 -10 4 -5 0 -10
-5 -10 -11z"/>
<path d="M4386 898 c3 -5 10 -6 15 -3 13 9 11 12 -6 12 -8 0 -12 -4 -9 -9z"/>
<path d="M4500 880 c-9 -6 -10 -10 -3 -10 6 0 15 5 18 10 8 12 4 12 -15 0z"/>
<path d="M1875 400 c-3 -5 -1 -10 4 -10 6 0 11 5 11 10 0 6 -2 10 -4 10 -3 0
-8 -4 -11 -10z"/>
<path d="M3255 380 c3 -5 8 -10 11 -10 2 0 4 5 4 10 0 6 -5 10 -11 10 -5 0 -7
-4 -4 -10z"/>
<path d="M1150 376 c0 -2 8 -10 18 -17 15 -13 16 -12 3 4 -13 16 -21 21 -21
13z"/>
<path d="M1390 376 c0 -2 8 -10 18 -17 15 -13 16 -12 3 4 -13 16 -21 21 -21
13z"/>
<path d="M3870 376 c0 -2 8 -10 18 -17 15 -13 16 -12 3 4 -13 16 -21 21 -21
13z"/>
<path d="M1110 366 c0 -2 7 -7 16 -10 8 -3 12 -2 9 4 -6 10 -25 14 -25 6z"/>
<path d="M1536 358 c3 -5 10 -6 15 -3 13 9 11 12 -6 12 -8 0 -12 -4 -9 -9z"/>
<path d="M3456 358 c3 -5 10 -6 15 -3 13 9 11 12 -6 12 -8 0 -12 -4 -9 -9z"/>
<path d="M4056 358 c3 -4 11 -5 19 -1 21 7 19 12 -4 10 -11 0 -18 -5 -15 -9z"/>
<path d="M1295 351 c-3 -5 -2 -12 3 -15 5 -3 9 1 9 9 0 17 -3 19 -12 6z"/>
<path d="M3413 345 c0 -8 4 -12 9 -9 5 3 6 10 3 15 -9 13 -12 11 -12 -6z"/>
<path d="M1615 340 c3 -5 8 -10 11 -10 2 0 4 5 4 10 0 6 -5 10 -11 10 -5 0 -7
-4 -4 -10z"/>
<path d="M3335 340 c3 -5 8 -10 11 -10 2 0 4 5 4 10 0 6 -5 10 -11 10 -5 0 -7
-4 -4 -10z"/>
<path d="M3535 340 c3 -5 8 -10 11 -10 2 0 4 5 4 10 0 6 -5 10 -11 10 -5 0 -7
-4 -4 -10z"/>
<path d="M3695 340 c3 -5 8 -10 11 -10 2 0 4 5 4 10 0 6 -5 10 -11 10 -5 0 -7
-4 -4 -10z"/>
</g>
</svg>
